{"title":"Star Wars 7: The force Awakens (2015) HQ1080p Blu-ray HEVC -DDR","uid":15506755,"size":14452305155,"categoryP":"video","categoryS":"hd___movies","magnet":"?xt=urn:btih:1c5934e5df420ccdfccfac1e22e10ca5cfbfdf9e&amp;dn=Star+Wars+7%3A+The+force+Awakens+%282015%29+HQ1080p+Blu-ray+HEVC+-DDR&amp;tr=udp%3A%2F%2Ftracker.leechers-paradise.org%3A6969&amp;tr=udp%3A%2F%2Fzer0day.ch%3A1337&amp;tr=udp%3A%2F%2Fopen.demonii.com%3A1337&amp;tr=udp%3A%2F%2Ftracker.coppersurfer.tk%3A6969&amp;tr=udp%3A%2F%2Fexodus.desync.com%3A6969","seeders":4,"leechers":4,"uploader":"SaM","files":3,"time":1470597481,"description":"HQ 1080p Blu-ray Rip HEVC 10 Bits\r\n\r\nDual Real DTS HD Master Audio 7.1 for [color=Sienna]Hindi &amp;\r\n\r\nEnglish with DTS 5.1\r\n\r\nArabic, English, French, Hindi and Hindi Forced Subtitles \r\n\r\nScreenshots Comparison between Source and DDR Encode\r\n \nhttp://screenshotcomparison.com/comparison/180355 \nhttp://screenshotcomparison.com/comparison/180356 \nhttp://screenshotcomparison.com/comparison/180357 \nhttp://screenshotcomparison.com/comparison/180358\r\n\r\n \nhttp://extraimago.com/image/wTel \nhttp://extraimago.com/image/wTei \nhttp://extraimago.com/image/wTem \nhttp://extraimago.com/image/wTeR \nhttp://extraimago.com/image/wTeQ \nhttp://extraimago.com/image/wTeL \nhttp://extraimago.com/image/wTey \nhttp://extraimago.com/image/wTeq \nhttp://extraimago.com/image/wTeS \nhttp://extraimago.com/image/wTeO \nhttp://extraimago.com/image/wTeE \nhttp://extraimago.com/image/wTe1 \nhttp://extraimago.com/image/wTec \nhttp://extraimago.com/image/wTe7 \nhttp://extraimago.com/image/wTes\r\n\r\n\r\nSpecs:\r\nSource: FRENCH BD50 @ DDR\r\n\r\nFormat : Matroska\r\nFFile size : 13.3 GiB\r\nDuration : 2h 18mn\r\nOverall bit rate : 13.8 Mbps\r\nEncoded date : UTC 2016-08-03 19:14:37\r\n\r\nVideo\r\nFormat : HEVC\r\nFormat/Info : High Efficiency Video Coding\r\nFormat profile : Main   @Main\r\nCodec ID : V_MPEGH/ISO/HEVC\r\nDuration : 2h 18mn\r\nBit rate : 7 163 Kbps\r\nWidth : 1 920 pixels\r\nHeight : 800 pixels\r\nDisplay aspect ratio : 2.40:1\r\nFrame rate mode : Constant\r\nFrame rate : 23.976 (24000/1001) fps\r\ncolor space : YUV\r\nChroma subsampling : 4:2:0\r\nBit depth : 10 bits\r\nBits/(Pixel*Frame) : 0.195\r\nStream size : 6.91 GiB (52%)\r\ncolor primaries : BT.709\r\nTransfer characteristics : BT.709\r\nMatrix coefficients : BT.709\r\n\r\nAudio #1\r\nFormat : DTS\r\nFormat/Info : Digital Theater Systems\r\nFormat profile : MA / Core\r\nMode : 16\r\nFormat settings, Endianness : Big\r\nCodec ID : A_DTS\r\nDuration : 2h 18mn\r\nBit rate mode : Variable / Constant\r\nBit rate : 5 137 Kbps / 1 509 Kbps\r\nChannel(s) : 8 channels / 6 channels\r\nChannel positions : Front: L C R, Side: L R, Back: L R, LFE / Front: L C R, Side: L R, LFE\r\nSampling rate : 48.0 KHz\r\nFrame rate : 93.750 fps (512 spf)\r\nBit depth : 24 bits\r\nCompression mode : Lossless / Lossy\r\nStream size : 4.96 GiB (37%)\r\nLanguage : Hindi\r\nDefault : Yes\r\nForced : No\r\n\r\n\r\nAudio #2\r\nFormat : DTS\r\nFormat/Info : Digital Theater Systems\r\nMode : 16\r\nFormat settings, Endianness : Big\r\nCodec ID : A_DTS\r\nDuration : 2h 18mn\r\nBit rate mode : Constant\r\nBit rate : 1 509 Kbps\r\nChannel(s) : 6 channels\r\nChannel positions : Front: L C R, Side: L R, LFE\r\nSampling rate : 48.0 KHz\r\nFrame rate : 93.750 fps (512 spf)\r\nBit depth : 24 bits\r\nCompression mode : Lossy\r\nStream size : 1.46 GiB (11%)\r\nLanguage : English\r\nDefault : No\r\nForced : No\r\n\r\n\r\nChapters : YES","torrent":{"xt":"urn:btih:1c5934e5df420ccdfccfac1e22e10ca5cfbfdf9e","amp;dn":"Star+Wars+7%3A+The+force+Awakens+%282015%29+HQ1080p+Blu-ray+HEVC+-DDR","amp;tr":["udp%3A%2F%2Ftracker.leechers-paradise.org%3A6969","udp%3A%2F%2Fzer0day.ch%3A1337","udp%3A%2F%2Fopen.demonii.com%3A1337","udp%3A%2F%2Ftracker.coppersurfer.tk%3A6969","udp%3A%2F%2Fexodus.desync.com%3A6969"],"infoHash":"1c5934e5df420ccdfccfac1e22e10ca5cfbfdf9e","infoHashBuffer":{"type":"Buffer","data":[28,89,52,229,223,66,12,205,252,207,172,30,34,225,12,165,207,191,223,158]},"announce":[],"urlList":[]}}